<svg xmlns="http://www.w3.org/2000/svg" viewBox="0 0 500 500" fill="none">
  <!-- Version 3: Minimalist Woodcut / Stencil Style - High contrast, bold shapes -->
  <title>BOSSVIEW Octopus - Woodcut Stencil Style</title>

  <!-- Head - solid black with white details carved out -->
  <path d="M250 72 C320 72 375 120 385 188 C395 258 358 298 325 315 C302 328 278 332 250 332 C222 332 198 328 175 315 C142 298 105 258 115 188 C125 120 180 72 250 72Z"
        fill="black" stroke="none"/>

  <!-- White carved-out areas on head (woodcut effect) -->
  <!-- Main highlight -->
  <path d="M200 100 C215 88 240 82 260 85 C280 88 295 98 305 115 C290 100 265 90 240 90 C220 90 205 95 200 100Z"
        fill="white"/>

  <!-- Secondary highlight -->
  <path d="M175 130 C180 120 190 112 200 110 C192 118 185 128 182 140Z"
        fill="white"/>

  <!-- Eye socket (white cutout) -->
  <ellipse cx="265" cy="205" rx="44" ry="50" fill="white"/>

  <!-- Iris ring -->
  <circle cx="270" cy="210" r="26" fill="black"/>

  <!-- Pupil highlight carved out -->
  <circle cx="280" cy="198" r="9" fill="white"/>
  <circle cx="264" cy="220" r="5" fill="white"/>

  <!-- Second eye (white cutout, partially hidden) -->
  <ellipse cx="188" cy="215" rx="26" ry="30" fill="white"/>
  <circle cx="185" cy="218" r="15" fill="black"/>
  <circle cx="191" cy="210" r="6" fill="white"/>
  <circle cx="181" cy="224" r="3" fill="white"/>

  <!-- Brow ridge (white line carved) -->
  <path d="M210 170 C230 158 268 152 308 165" stroke="white" stroke-width="4" fill="none" stroke-linecap="round"/>

  <!-- Under-eye texture (woodcut lines) -->
  <path d="M230 260 C240 255 260 253 280 258" stroke="white" stroke-width="1.5" fill="none"/>
  <path d="M235 268 C245 264 260 262 275 266" stroke="white" stroke-width="1" fill="none"/>

  <!-- Head texture lines (woodcut grain) -->
  <g stroke="white" stroke-width="0.8" fill="none" opacity="0.6">
    <path d="M160 200 C165 195 172 192 180 190"/>
    <path d="M155 215 C160 212 168 210 175 210"/>
    <path d="M152 230 C158 228 165 227 172 228"/>
    <path d="M320 160 C328 165 335 172 340 180"/>
    <path d="M330 175 C336 180 342 188 345 196"/>
    <path d="M335 195 C340 200 345 208 348 218"/>
  </g>

  <!-- Tentacle 1 - front left (solid black) -->
  <path d="M195 315 C168 358 120 408 98 448 C85 472 94 490 115 482 C136 474 132 450 125 425 C116 395 145 355 175 328"
        fill="black" stroke="none"/>
  <!-- White carved lines for dimension -->
  <path d="M185 330 C172 350 148 385 135 412" stroke="white" stroke-width="2" fill="none" stroke-linecap="round"/>
  <path d="M178 338 C168 355 150 382 140 405" stroke="white" stroke-width="1" fill="none"/>
  <!-- Suckers (white carved circles) -->
  <circle cx="168" cy="340" r="5.5" fill="white"/>
  <circle cx="168" cy="340" r="2.5" fill="black"/>
  <circle cx="148" cy="372" r="6" fill="white"/>
  <circle cx="148" cy="372" r="2.8" fill="black"/>
  <circle cx="130" cy="402" r="5.5" fill="white"/>
  <circle cx="130" cy="402" r="2.5" fill="black"/>
  <circle cx="118" cy="432" r="5" fill="white"/>
  <circle cx="118" cy="432" r="2.2" fill="black"/>

  <!-- Tentacle 2 - front right -->
  <path d="M305 315 C338 355 388 388 428 395 C455 400 472 382 462 362 C452 342 430 346 408 358 C382 372 352 350 325 325"
        fill="black" stroke="none"/>
  <path d="M322 330 C345 355 375 375 400 380" stroke="white" stroke-width="2" fill="none" stroke-linecap="round"/>
  <path d="M328 338 C348 358 372 372 395 375" stroke="white" stroke-width="1" fill="none"/>
  <circle cx="338" cy="342" r="5.5" fill="white"/>
  <circle cx="338" cy="342" r="2.5" fill="black"/>
  <circle cx="362" cy="365" r="6" fill="white"/>
  <circle cx="362" cy="365" r="2.8" fill="black"/>
  <circle cx="390" cy="378" r="5.5" fill="white"/>
  <circle cx="390" cy="378" r="2.5" fill="black"/>
  <circle cx="418" cy="378" r="5" fill="white"/>
  <circle cx="418" cy="378" r="2.2" fill="black"/>

  <!-- Tentacle 3 - upper left -->
  <path d="M152 282 C118 262 72 255 45 280 C28 298 34 320 54 322 C74 324 84 305 88 282 C93 258 118 253 148 268"
        fill="black" stroke="none"/>
  <path d="M135 272 C112 262 85 262 70 275" stroke="white" stroke-width="2" fill="none" stroke-linecap="round"/>
  <circle cx="118" cy="268" r="4.5" fill="white"/>
  <circle cx="118" cy="268" r="2" fill="black"/>
  <circle cx="95" cy="264" r="4.5" fill="white"/>
  <circle cx="95" cy="264" r="2" fill="black"/>
  <circle cx="72" cy="274" r="4" fill="white"/>
  <circle cx="72" cy="274" r="1.8" fill="black"/>

  <!-- Tentacle 4 - upper right -->
  <path d="M348 282 C382 260 428 250 455 272 C472 288 468 312 448 316 C428 320 418 300 415 278 C410 255 385 248 355 265"
        fill="black" stroke="none"/>
  <path d="M365 268 C390 258 418 258 435 270" stroke="white" stroke-width="2" fill="none" stroke-linecap="round"/>
  <circle cx="385" cy="262" r="4.5" fill="white"/>
  <circle cx="385" cy="262" r="2" fill="black"/>
  <circle cx="408" cy="258" r="4.5" fill="white"/>
  <circle cx="408" cy="258" r="2" fill="black"/>
  <circle cx="432" cy="268" r="4" fill="white"/>
  <circle cx="432" cy="268" r="1.8" fill="black"/>

  <!-- Tentacle 5 - center left down -->
  <path d="M215 325 C192 372 162 438 158 475 C156 492 168 498 180 490 C192 482 190 462 182 438 C172 405 195 368 218 342"
        fill="black" stroke="none"/>
  <path d="M208 348 C195 375 178 418 175 452" stroke="white" stroke-width="2" fill="none" stroke-linecap="round"/>
  <circle cx="200" cy="358" r="5.5" fill="white"/>
  <circle cx="200" cy="358" r="2.5" fill="black"/>
  <circle cx="185" cy="392" r="5.5" fill="white"/>
  <circle cx="185" cy="392" r="2.5" fill="black"/>
  <circle cx="175" cy="425" r="5" fill="white"/>
  <circle cx="175" cy="425" r="2.2" fill="black"/>
  <circle cx="172" cy="458" r="4.5" fill="white"/>
  <circle cx="172" cy="458" r="2" fill="black"/>

  <!-- Tentacle 6 - center right down -->
  <path d="M285 325 C308 372 342 438 348 472 C350 490 338 498 326 492 C314 486 318 462 324 438 C334 405 312 368 290 342"
        fill="black" stroke="none"/>
  <path d="M295 348 C310 378 330 422 338 458" stroke="white" stroke-width="2" fill="none" stroke-linecap="round"/>
  <circle cx="302" cy="358" r="5.5" fill="white"/>
  <circle cx="302" cy="358" r="2.5" fill="black"/>
  <circle cx="320" cy="395" r="5.5" fill="white"/>
  <circle cx="320" cy="395" r="2.5" fill="black"/>
  <circle cx="332" cy="428" r="5" fill="white"/>
  <circle cx="332" cy="428" r="2.2" fill="black"/>
  <circle cx="340" cy="460" r="4.5" fill="white"/>
  <circle cx="340" cy="460" r="2" fill="black"/>

  <!-- Tentacle 7 - far left -->
  <path d="M165 300 C130 330 85 375 65 418 C52 445 65 462 82 455 C99 448 95 425 88 405 C78 378 102 345 135 318"
        fill="black" stroke="none"/>
  <path d="M148 318 C125 340 95 380 80 415" stroke="white" stroke-width="1.5" fill="none"/>
  <circle cx="130" cy="338" r="4" fill="white"/>
  <circle cx="130" cy="338" r="1.8" fill="black"/>
  <circle cx="105" cy="370" r="4" fill="white"/>
  <circle cx="105" cy="370" r="1.8" fill="black"/>
  <circle cx="82" cy="402" r="3.5" fill="white"/>
  <circle cx="82" cy="402" r="1.5" fill="black"/>

  <!-- Tentacle 8 - far right -->
  <path d="M335 300 C370 328 418 372 438 412 C452 438 440 458 422 452 C405 446 408 425 415 402 C424 375 402 342 370 318"
        fill="black" stroke="none"/>
  <path d="M355 318 C378 340 410 378 428 415" stroke="white" stroke-width="1.5" fill="none"/>
  <circle cx="375" cy="335" r="4" fill="white"/>
  <circle cx="375" cy="335" r="1.8" fill="black"/>
  <circle cx="400" cy="368" r="4" fill="white"/>
  <circle cx="400" cy="368" r="1.8" fill="black"/>
  <circle cx="422" cy="400" r="3.5" fill="white"/>
  <circle cx="422" cy="400" r="1.5" fill="black"/>

  <!-- Ink splatter (woodcut/stencil effect) -->
  <circle cx="42" cy="145" r="4" fill="black"/>
  <circle cx="35" cy="155" r="2" fill="black"/>
  <circle cx="48" cy="160" r="1.5" fill="black"/>
  <circle cx="458" cy="142" r="3.5" fill="black"/>
  <circle cx="465" cy="155" r="2" fill="black"/>
  <circle cx="452" cy="158" r="1.5" fill="black"/>

  <circle cx="40" cy="440" r="3" fill="black"/>
  <circle cx="460" cy="435" r="2.5" fill="black"/>

  <!-- Drip marks -->
  <path d="M105 490 L105 498" stroke="black" stroke-width="2" stroke-linecap="round"/>
  <path d="M400 488 L400 496" stroke="black" stroke-width="2" stroke-linecap="round"/>
  <circle cx="250" cy="498" r="2" fill="black"/>
</svg>